<svg xmlns="http://www.w3.org/2000/svg" width="25.217" height="20" viewBox="0 0 25.217 20"><defs><style>.a{fill:#fff;}</style></defs><g transform="translate(0 -6)"><path class="a" d="M24.783,6H.435A.435.435,0,0,0,0,6.435v19.13A.435.435,0,0,0,.435,26H24.783a.435.435,0,0,0,.435-.435V6.435A.435.435,0,0,0,24.783,6Zm-.435,19.13H.87V6.87H24.348Z"/><path class="a" d="M12.852,21.843a2.421,2.421,0,1,0-2.421-2.421A2.424,2.424,0,0,0,12.852,21.843Zm0-3.973A1.552,1.552,0,1,1,11.3,19.422,1.554,1.554,0,0,1,12.852,17.87Z" transform="translate(-5.896 -6.217)"/><path class="a" d="M6.434,33a.434.434,0,0,0,.287-.108l7.093-6.244,4.479,4.479a.435.435,0,0,0,.615-.615l-2.09-2.09L20.81,24.05l4.9,4.488a.435.435,0,1,0,.587-.641l-5.217-4.783A.448.448,0,0,0,20.763,23a.436.436,0,0,0-.3.141L16.2,27.806l-2.062-2.062a.435.435,0,0,0-.595-.019l-7.4,6.514A.435.435,0,0,0,6.434,33Z" transform="translate(-3.391 -9.609)"/></g></svg>