<svg xmlns="http://www.w3.org/2000/svg" width="60.319" height="47.839" viewBox="0 0 60.319 47.839"><defs><style>.a{fill:#018dd4;}</style></defs><path class="a" d="M59.279,6H1.04A1.04,1.04,0,0,0,0,7.04V52.8a1.04,1.04,0,0,0,1.04,1.04H59.279a1.04,1.04,0,0,0,1.04-1.04V7.04A1.04,1.04,0,0,0,59.279,6Zm-1.04,45.759H2.08V8.08H58.239Z" transform="translate(0 -6)"/><path class="a" d="M16.223,28.583a5.792,5.792,0,1,0-5.792-5.792A5.8,5.8,0,0,0,16.223,28.583Zm0-9.5a3.712,3.712,0,1,1-3.712,3.713A3.716,3.716,0,0,1,16.223,19.08Z" transform="translate(0.417 -5.56)"/><path class="a" d="M7.04,46.92a1.037,1.037,0,0,0,.686-.259L24.692,31.724,35.406,42.437a1.04,1.04,0,0,0,1.471-1.471l-5-5,9.548-10.456L53.136,36.247a1.04,1.04,0,1,0,1.405-1.534l-12.48-11.44A1.073,1.073,0,0,0,41.313,23a1.042,1.042,0,0,0-.722.338L30.405,34.495l-4.933-4.933a1.041,1.041,0,0,0-1.423-.046L6.353,45.1A1.04,1.04,0,0,0,7.04,46.92Z" transform="translate(0.24 -5.32)"/></svg>