<svg xmlns="http://www.w3.org/2000/svg" width="20.847" height="20.979" viewBox="0 0 20.847 20.979"><defs><style>.a{fill:#fff;}</style></defs><path class="a" d="M20.915,9.573l-3.12-2.9V1.928H14.2V3.338L10.606,0,.3,9.573a.36.36,0,1,0,.49.527L1.98,8.992V20.979H19.233V8.991L20.426,10.1a.359.359,0,0,0,.489-.527Zm-6-6.925h2.157v3.36l-2.157-2ZM8.45,20.26V12.689a.337.337,0,0,1,.337-.337h3.64a.337.337,0,0,1,.337.337V20.26Zm10.064,0H13.482V12.689a1.057,1.057,0,0,0-1.056-1.056H8.786a1.057,1.057,0,0,0-1.056,1.056V20.26H2.7V8.324L10.606.981l5.133,4.766L17.8,7.656h0l.719.667Z" transform="translate(-0.183)"/></svg>