<svg xmlns="http://www.w3.org/2000/svg" width="23.548" height="24.36" viewBox="0 0 23.548 24.36"><defs><style>.a{fill:#fff;}</style></defs><g transform="translate(-1)"><path class="a" d="M22.684,16H17v5.684h5.684Zm-.812,4.872h-4.06v-4.06h4.06Z" transform="translate(-9.504 -9.504)"/><path class="a" d="M41.9,16h-6.5a.406.406,0,0,0,0,.812h6.5a.406.406,0,0,0,0-.812Z" transform="translate(-20.196 -9.504)"/><path class="a" d="M41.9,22h-6.5a.406.406,0,1,0,0,.812h6.5a.406.406,0,1,0,0-.812Z" transform="translate(-20.196 -13.068)"/><path class="a" d="M41.9,28h-6.5a.406.406,0,1,0,0,.812h6.5a.406.406,0,0,0,0-.812Z" transform="translate(-20.196 -16.632)"/><path class="a" d="M31.8,34h-13.4a.406.406,0,0,0,0,.812H31.8a.406.406,0,1,0,0-.812Z" transform="translate(-10.098 -20.196)"/><path class="a" d="M24.5,40h-6.09a.406.406,0,0,0,0,.812H24.5a.406.406,0,0,0,0-.812Z" transform="translate(-10.098 -23.76)"/><path class="a" d="M24.5,46h-6.09a.406.406,0,0,0,0,.812H24.5a.406.406,0,1,0,0-.812Z" transform="translate(-10.098 -27.324)"/><path class="a" d="M24.5,52h-6.09a.406.406,0,0,0,0,.812H24.5a.406.406,0,1,0,0-.812Z" transform="translate(-10.098 -30.888)"/><path class="a" d="M39,45.684h5.684V40H39Zm.812-4.872h4.06v4.06h-4.06Z" transform="translate(-22.572 -23.76)"/><path class="a" d="M24.548,5.278c0-.007,0-.013,0-.019V0H5.06V12.18H1v9.744A2.438,2.438,0,0,0,3.436,24.36H22.112a2.435,2.435,0,0,0,2.432-2.432V5.3C24.544,5.291,24.548,5.285,24.548,5.278ZM23.732.812v4.06H5.872V.812ZM1.812,21.924V12.992H5.06v8.932a1.624,1.624,0,0,1-3.248,0Zm20.3,1.624H5.25c.006-.007.011-.016.017-.023a2.42,2.42,0,0,0,.226-.3l.032-.052a2.388,2.388,0,0,0,.172-.344c.006-.017.012-.033.018-.05a2.411,2.411,0,0,0,.111-.385c0-.012,0-.025.006-.037a2.424,2.424,0,0,0,.041-.43V5.684h17.86V21.928A1.622,1.622,0,0,1,22.112,23.548Z"/><path class="a" d="M32.744,4H23V6.436h9.744Zm-.812,1.624h-8.12V4.812h8.12Z" transform="translate(-13.068 -2.376)"/></g></svg>